<svg id="Capa_1" data-name="Capa 1" xmlns="http://www.w3.org/2000/svg" viewBox="0 0 527 527">
  <defs>
    <style>
      .cls-1 {
        fill: #3E3E3E;
      }
    </style>
  </defs>
  <g>
    <path class="cls-1" d="M442.32,69.68A263.5,263.5,0,1,0,69.68,442.32,263.5,263.5,0,1,0,442.32,69.68ZM256,491.59C126.1,491.59,20.41,385.9,20.41,256S126.1,20.41,256,20.41,491.59,126.1,491.59,256,385.9,491.59,256,491.59Z" transform="translate(7.5 7.5)"/>
    <path class="cls-1" d="M309.94,142.5h31v-54a399.92,399.92,0,0,0-45.2-2.39c-98.16,0-71.45,111.15-75.36,127.44H171v60.41h49.36v152h60.53v-152h47.36l7.52-60.41H280.9c2.66-40-10.78-71,29-71Z" transform="translate(7.5 7.5)"/>
  </g>
</svg>
