<svg id="Capa_1" data-name="Capa 1" xmlns="http://www.w3.org/2000/svg" viewBox="0 0 527 527">
  <defs>
    <style>
      .cls-1 {
        fill: #002791;
      }
    </style>
  </defs>
  <g>
    <path class="cls-1" d="M442.32,69.68A263.5,263.5,0,1,0,69.68,442.32,263.5,263.5,0,1,0,442.32,69.68ZM256,491.59C126.1,491.59,20.41,385.9,20.41,256S126.1,20.41,256,20.41,491.59,126.1,491.59,256,385.9,491.59,256,491.59Z" transform="translate(7.5 7.5)"/>
    <g>
      <path class="cls-1" d="M325.06,85.14H186.94a101.92,101.92,0,0,0-101.8,101.8V325.06a101.92,101.92,0,0,0,101.8,101.8H325.06a101.92,101.92,0,0,0,101.8-101.8V186.94A101.92,101.92,0,0,0,325.06,85.14Zm67.42,239.92a67.41,67.41,0,0,1-67.42,67.42H186.94a67.41,67.41,0,0,1-67.42-67.42V186.94a67.41,67.41,0,0,1,67.42-67.42H325.06a67.41,67.41,0,0,1,67.42,67.42V325.06Z" transform="translate(7.5 7.5)"/>
      <path class="cls-1" d="M256,167.62A88.38,88.38,0,1,0,344.38,256,88.48,88.48,0,0,0,256,167.62ZM256,310a54,54,0,1,1,54-54A54,54,0,0,1,256,310Z" transform="translate(7.5 7.5)"/>
      <circle class="cls-1" cx="352.05" cy="175.78" r="21.18"/>
    </g>
  </g>
</svg>
