<svg id="Capa_1" data-name="Capa 1" xmlns="http://www.w3.org/2000/svg" viewBox="0 0 527 527">
  <defs>
    <style>
      .cls-1 {
        fill:#002791;
      }
    </style>
  </defs>
  <g>
    <path class="cls-1" d="M425.54,150.87a145,145,0,0,1-40.06,11,69.09,69.09,0,0,0,30.58-38.42A138.94,138.94,0,0,1,372,140.25a69.5,69.5,0,0,0-120.24,47.53,71.8,71.8,0,0,0,1.61,15.85,196.7,196.7,0,0,1-143.28-72.71,69.55,69.55,0,0,0,21.36,92.91,68.58,68.58,0,0,1-31.4-8.56V216a69.82,69.82,0,0,0,55.69,68.3,69.3,69.3,0,0,1-18.23,2.29,61.63,61.63,0,0,1-13.16-1.18,70.2,70.2,0,0,0,65,48.42,139.68,139.68,0,0,1-86.19,29.65,130.17,130.17,0,0,1-16.64-1,195.71,195.71,0,0,0,106.64,31.2C321,393.75,391,287.79,391,195.94c0-3.07-.11-6-.25-9A138.92,138.92,0,0,0,425.54,150.87Z" transform="translate(7.5 7.5)"/>
    <path class="cls-1" d="M442.32,69.68A263.5,263.5,0,1,0,69.68,442.32,263.5,263.5,0,1,0,442.32,69.68ZM256,491.59C126.1,491.59,20.41,385.9,20.41,256S126.1,20.41,256,20.41,491.59,126.1,491.59,256,385.9,491.59,256,491.59Z" transform="translate(7.5 7.5)"/>
  </g>
</svg>
